<svg xmlns="http://www.w3.org/2000/svg" viewBox="0 0 33.62 31.44"><defs><style>.cls-1{fill:#0056a3;}</style></defs><g id="Layer_2" data-name="Layer 2"><g id="Layer_1-2" data-name="Layer 1"><path class="cls-1" d="M20,0H24.1V17.86a21.44,21.44,0,0,1-1,7.4,8.94,8.94,0,0,1-3.77,4.46,13.27,13.27,0,0,1-7.16,1.72,14.62,14.62,0,0,1-7-1.5,8.57,8.57,0,0,1-3.91-4.32A20.9,20.9,0,0,1,0,17.86V0H4.09V17.86a17.74,17.74,0,0,0,.74,5.94,5.64,5.64,0,0,0,2.55,2.94,8.63,8.63,0,0,0,4.38,1q4.47,0,6.36-2.05c1.26-1.37,1.9-4,1.9-7.87Z"/><path class="cls-1" d="M29.53,0h4.09V17.86a21.44,21.44,0,0,1-1,7.4,9,9,0,0,1-3.78,4.46,13.25,13.25,0,0,1-7.16,1.72,14.62,14.62,0,0,1-7-1.5,8.59,8.59,0,0,1-3.9-4.32,20.7,20.7,0,0,1-1.17-7.76V0h4.09V17.86a18.06,18.06,0,0,0,.73,5.94,5.73,5.73,0,0,0,2.55,2.94,8.71,8.71,0,0,0,4.4,1c3,0,5.09-.68,6.35-2.05s1.89-4,1.89-7.87Z"/></g></g></svg>